<svg width="1024" height="1024" viewBox="0 0 1024 1024" fill="none" xmlns="http://www.w3.org/2000/svg">
  <rect width="1024" height="1024" rx="224" fill="#0F172A"/>
  <path d="M184 698C266 600 338 552 418 552C490 552 546 616 620 616C694 616 760 562 840 452V794H184V698Z" fill="#38BDF8"/>
  <path d="M184 736C294 642 376 600 462 600C544 600 592 672 678 672C738 672 790 646 840 592V794H184V736Z" fill="#2563EB"/>
  <path d="M322 296H420V430H482V252H580V430H642V296H740V620H322V296Z" fill="#F8FAFC"/>
  <path d="M372 346H420V430H482V302H532V620H372V346Z" fill="#DBEAFE"/>
  <path d="M580 302H630V430H692V346H740V620H580V302Z" fill="#BFDBFE"/>
  <path d="M322 620H740V704H322V620Z" fill="#E0F2FE"/>
  <path d="M458 704V610C458 580 482 556 512 556C542 556 566 580 566 610V704H458Z" fill="#0F172A"/>
  <path d="M512 184V252" stroke="#F8FAFC" stroke-width="36" stroke-linecap="round"/>
  <path d="M512 190L654 226L512 262V190Z" fill="#22C55E"/>
</svg>
